# Blender v2.90.1 OBJ File: 'volcano.blend'
# www.blender.org
mtllib volcano.mtl
o Volcano_Cylinder
v 0.000000 0.119265 -5.535209
v 0.000000 5.844378 -1.356875
v 2.992560 0.119265 -4.656514
v 0.733582 5.264427 -1.141476
v 5.035004 0.119265 -2.299408
v 1.234257 4.876231 -0.563666
v 5.478868 0.119265 0.787743
v 1.343064 5.066008 0.193104
v 4.183231 0.119265 3.624792
v 1.025458 5.066008 0.888564
v 1.559448 0.119265 5.310994
v 0.382276 4.876231 1.301912
v -1.559450 0.119265 5.310994
v -0.382276 5.166912 1.301912
v -4.183232 0.119265 3.624790
v -1.025458 5.166912 0.888564
v -5.478868 0.119265 0.787741
v -1.343064 5.418566 0.193103
v -5.035002 0.119265 -2.299409
v -1.234257 5.418566 -0.563666
v -2.992560 0.119265 -4.656513
v -0.733582 5.456182 -1.141476
v 0.803174 5.264427 -1.249763
v 0.000000 5.844378 -1.485596
v 1.351346 4.876231 -0.617139
v 1.470475 5.066008 0.211423
v 1.122738 5.066008 0.972859
v 0.418541 4.876231 1.425419
v -0.418541 5.166912 1.425419
v -1.122739 5.166912 0.972858
v -1.470475 5.418566 0.211422
v -1.351346 5.418566 -0.617139
v -0.803174 5.456182 -1.249763
v 0.000000 4.506368 -1.356875
v 0.733582 4.506368 -1.141476
v 1.234257 4.506368 -0.563666
v 1.343064 4.506368 0.193104
v 1.025458 4.506368 0.888564
v 0.382276 4.506368 1.301912
v -0.382276 4.506368 1.301912
v -1.025458 4.506368 0.888564
v -1.343064 4.506368 0.193103
v -1.234257 4.506368 -0.563666
v -0.733582 4.506368 -1.141476
v 0.000000 3.692229 -3.287618
v 1.626194 3.330290 -2.810125
v 2.736084 3.088022 -1.249527
v 2.544607 3.206459 0.428069
v 1.840541 3.206459 1.969757
v 0.847423 3.088022 2.886060
v -0.847424 3.132649 2.886060
v -2.273221 3.132650 1.969756
v -2.977285 3.426486 0.428068
v -2.736083 3.426486 -1.432280
v -1.626194 3.449961 -2.713159
v 2.276253 1.802621 -3.821635
v 3.829812 1.675614 -1.749016
v 3.734753 1.737704 0.599187
v 2.749243 1.737704 2.757152
v 1.186174 1.675614 4.039741
v -1.186176 1.633935 4.039740
v -3.181922 1.633935 2.757150
v -4.167431 1.853051 0.599185
v -3.829811 1.853051 -1.931768
v -2.276253 1.865358 -3.724670
v 0.000000 1.992365 -4.490003
vt 0.662420 0.277242
vt 0.543430 0.232808
vt 0.572196 0.186480
vt 0.680373 0.184820
vt 0.588246 0.142285
vt 0.684000 0.088798
vt 0.291869 0.666030
vt 0.392353 0.608019
vt 0.421278 0.611171
vt 0.357762 0.692382
vt 0.457834 0.629803
vt 0.431777 0.730108
vt 0.490414 0.658002
vt 0.490414 0.767230
vt 0.857056 0.598526
vt 0.836744 0.686066
vt 0.794733 0.688109
vt 0.772149 0.600798
vt 0.759980 0.714047
vt 0.701785 0.653315
vt 0.743366 0.757504
vt 0.668207 0.740563
vt 0.291869 0.806574
vt 0.291869 0.926172
vt 0.254677 0.943190
vt 0.208867 0.844551
vt 0.508945 0.835381
vt 0.528395 0.853004
vt 0.490414 0.853004
vt 0.490414 0.835381
vt 0.218204 0.962136
vt 0.134013 0.880210
vt 0.200247 0.993658
vt 0.083168 0.918019
vt 0.458946 0.536128
vt 0.316800 0.608019
vt 0.162124 0.583390
vt 0.044025 0.470060
vt 0.000000 0.304010
vt 0.044025 0.137959
vt 0.162124 0.024629
vt 0.316800 0.000000
vt 0.458946 0.071892
vt 0.543430 0.217480
vt 0.543430 0.390540
vt 0.818702 0.843957
vt 0.855364 0.829125
vt 0.858974 0.835034
vt 0.818850 0.851084
vt 0.879889 0.795176
vt 0.885815 0.797990
vt 0.884415 0.753790
vt 0.890776 0.752617
vt 0.867707 0.715681
vt 0.872483 0.710893
vt 0.835070 0.692949
vt 0.796691 0.694902
vt 0.764950 0.718593
vt 0.749769 0.758359
vt 0.756089 0.800123
vt 0.750285 0.803230
vt 0.781820 0.831618
vt 0.778459 0.837700
vt 0.722208 0.946819
vt 0.722208 0.982508
vt 0.676504 0.982508
vt 0.676504 0.946819
vt 0.499420 0.645121
vt 0.516407 0.608019
vt 0.534761 0.608019
vt 0.532198 0.645121
vt 0.518454 0.799692
vt 0.490414 0.799692
vt 0.724093 0.904396
vt 0.676504 0.904396
vt 0.499762 0.687454
vt 0.532541 0.687454
vt 0.518454 0.757269
vt 0.490414 0.757269
vt 0.743543 0.868708
vt 0.676504 0.868708
vt 0.714485 0.851084
vt 0.676504 0.851084
vt 0.490414 0.721580
vt 0.535681 0.721580
vt 0.508945 0.721580
vt 0.490414 0.721580
vt 0.073595 0.812720
vt 0.000000 0.854018
vt 0.178765 0.763861
vt 0.291869 0.712110
vt 0.655789 0.605717
vt 0.608843 0.727182
vt 0.754281 0.532207
vt 0.873098 0.529383
vt 0.401009 0.804141
vt 0.490414 0.853504
vt 0.297408 0.751334
vt 0.926083 0.019103
vt 0.982995 0.036440
vt 1.000000 0.127637
vt 0.941246 0.147960
vt 0.764315 0.177613
vt 0.759632 0.046552
vt 0.754903 0.306441
vt 0.854911 0.331151
vt 0.854911 0.162207
vt 0.842971 0.000000
vt 0.863372 0.000000
vt 0.854911 0.172473
vt 1.000000 0.262176
vt 0.932154 0.322631
vt 0.354211 0.879145
vt 0.490414 0.948570
vt 0.890776 0.453193
vt 0.734553 0.457094
vt 0.605067 0.553737
vt 0.543430 0.712438
vt 0.291869 0.608019
vt 0.153293 0.671424
vt 0.014718 0.734829
vt 0.842971 0.453193
vt 0.751462 0.396467
vt 0.621007 0.851084
vt 0.655816 0.868766
vt 0.676504 0.904467
vt 0.676504 0.946853
vt 0.655816 0.982466
vt 0.621007 1.000000
vt 0.583130 0.993887
vt 0.554211 0.966069
vt 0.543430 0.925377
vt 0.554211 0.884731
vt 0.583130 0.857036
vn 0.4329 0.6232 -0.6514
vn 0.7002 0.6219 -0.3506
vn 0.8260 0.5619 -0.0453
vn 0.7890 0.4977 0.3603
vn 0.4375 0.5930 0.6760
vn 0.0802 0.6053 0.7920
vn -0.4392 0.5832 0.6833
vn -0.6783 0.5826 0.4478
vn -0.7970 0.5945 -0.1068
vn -0.7557 0.0000 0.6549
vn -0.6030 0.6194 -0.5027
vn -0.3885 0.6154 -0.6858
vn 0.0000 -1.0000 -0.0000
vn 0.5628 0.8099 0.1652
vn 0.2857 0.8998 0.3297
vn -0.0328 0.9731 -0.2282
vn 0.0000 1.0000 0.0000
vn -0.1940 0.9731 0.1247
vn 0.3412 0.9400 0.0000
vn 0.1245 0.9540 0.2727
vn -0.0307 0.9989 0.0355
vn -0.4185 0.8998 0.1229
vn 0.9898 0.0000 0.1423
vn 0.0000 0.0000 -1.0000
vn -0.9898 0.0000 0.1423
vn 0.7557 0.0000 0.6549
vn 0.5406 0.0000 -0.8413
vn -0.9096 0.0000 -0.4154
vn 0.2817 0.0000 0.9595
vn -0.2817 0.0000 0.9595
vn 0.9096 0.0000 -0.4154
vn -0.5406 0.0000 -0.8413
vn -0.3142 0.5726 -0.7572
vn -0.6136 0.5899 -0.5248
vn -0.7996 0.5913 -0.1054
vn -0.6939 0.5988 0.3999
vn -0.4284 0.6100 0.6666
vn 0.0005 0.6212 0.7837
vn 0.4842 0.6233 0.6140
vn 0.7153 0.6177 0.3267
vn 0.7849 0.6190 0.0281
vn 0.6654 0.6133 -0.4255
vn 0.3039 0.5798 -0.7560
vn 0.2616 0.4917 -0.8305
vn 0.6351 0.5899 -0.4987
vn 0.7284 0.6829 -0.0545
vn 0.6341 0.7170 0.2896
vn 0.4281 0.6598 0.6176
vn -0.0048 0.6377 0.7703
vn -0.4141 0.6429 0.6444
vn -0.7059 0.6162 0.3494
vn -0.8015 0.5875 -0.1115
vn -0.6310 0.5520 -0.5451
vn -0.2686 0.5022 -0.8220
usemtl 1_Volcano_Rock
s off
f 45/1/1 24/2/1 23/3/1 46/4/1
f 46/4/2 23/3/2 25/5/2 47/6/2
f 47/7/3 25/8/3 26/9/3 48/10/3
f 48/10/4 26/9/4 27/11/4 49/12/4
f 49/12/5 27/11/5 28/13/5 50/14/5
f 50/15/6 28/16/6 29/17/6 51/18/6
f 51/18/7 29/17/7 30/19/7 52/20/7
f 52/20/8 30/19/8 31/21/8 53/22/8
f 53/23/9 31/24/9 32/25/9 54/26/9
f 6/27/10 4/28/10 35/29/10 36/30/10
f 54/26/11 32/25/11 33/31/11 55/32/11
f 55/32/12 33/31/12 24/33/12 45/34/12
f 1/35/13 3/36/13 5/37/13 7/38/13 9/39/13 11/40/13 13/41/13 15/42/13 17/43/13 19/44/13 21/45/13
f 2/46/14 4/47/14 23/48/14 24/49/14
f 4/47/15 6/50/15 25/51/15 23/48/15
f 6/50/16 8/52/16 26/53/16 25/51/16
f 8/52/17 10/54/17 27/55/17 26/53/17
f 10/54/18 12/56/18 28/16/18 27/55/18
f 12/56/19 14/57/19 29/17/19 28/16/19
f 14/57/17 16/58/17 30/19/17 29/17/17
f 16/58/20 18/59/20 31/21/20 30/19/20
f 18/59/17 20/60/17 32/61/17 31/21/17
f 20/60/21 22/62/21 33/63/21 32/61/21
f 22/62/22 2/46/22 24/49/22 33/63/22
f 20/64/23 18/65/23 42/66/23 43/67/23
f 14/68/24 12/69/24 39/70/24 40/71/24
f 8/72/25 6/27/25 36/30/25 37/73/25
f 22/74/26 20/64/26 43/67/26 44/75/26
f 16/76/27 14/68/27 40/71/27 41/77/27
f 10/78/28 8/72/28 37/73/28 38/79/28
f 2/80/29 22/74/29 44/75/29 34/81/29
f 4/82/30 2/80/30 34/81/30 35/83/30
f 18/84/31 16/76/31 41/77/31 42/85/31
f 12/86/32 10/78/32 38/79/32 39/87/32
f 65/88/33 55/32/33 45/34/33 66/89/33
f 64/90/34 54/26/34 55/32/34 65/88/34
f 63/91/35 53/23/35 54/26/35 64/90/35
f 62/92/36 52/20/36 53/22/36 63/93/36
f 61/94/37 51/18/37 52/20/37 62/92/37
f 60/95/38 50/15/38 51/18/38 61/94/38
f 59/96/39 49/12/39 50/14/39 60/97/39
f 58/98/40 48/10/40 49/12/40 59/96/40
f 57/99/41 47/100/41 48/101/41 58/102/41
f 56/103/42 46/4/42 47/6/42 57/104/42
f 66/105/43 45/1/43 46/4/43 56/103/43
f 1/106/44 66/105/44 56/103/44 3/107/44
f 3/107/45 56/103/45 57/104/45 5/108/45
f 5/109/46 57/99/46 58/102/46 7/110/46
f 7/110/47 58/102/47 59/111/47 9/112/47
f 9/113/48 59/96/48 60/97/48 11/114/48
f 11/115/49 60/95/49 61/94/49 13/116/49
f 13/116/50 61/94/50 62/92/50 15/117/50
f 15/117/51 62/92/51 63/93/51 17/118/51
f 17/119/52 63/91/52 64/90/52 19/120/52
f 19/120/53 64/90/53 65/88/53 21/121/53
f 21/122/54 65/123/54 66/105/54 1/106/54
usemtl 2_Lava
f 35/124/17 34/125/17 44/126/17 43/127/17 42/128/17 41/129/17 40/130/17 39/131/17 38/132/17 37/133/17 36/134/17
